<svg width="29" height="28" fill="none" xmlns="http://www.w3.org/2000/svg"><g clip-path="url(#a)"><path d="M28.352 14.47c0-7.593-6.15-13.744-13.742-13.744C7.018.726.866 6.877.866 14.47c0 6.86 5.026 12.545 11.596 13.577v-9.604H8.971v-3.973h3.491v-3.028c0-3.444 2.05-5.346 5.19-5.346 1.505 0 3.078.268 3.078.268v3.38h-1.734c-1.707 0-2.24 1.06-2.24 2.146v2.58h3.812l-.61 3.973h-3.201v9.604c6.57-1.032 11.595-6.718 11.595-13.577z" fill="#010101"/></g><defs><clipPath id="a"><path fill="#fff" transform="translate(.547 .406)" d="M0 0H27.486V27.486H0z"/></clipPath></defs></svg>