<svg xmlns="http://www.w3.org/2000/svg" version="1.1" xmlns:xlink="http://www.w3.org/1999/xlink" xmlns:svgjs="http://svgjs.dev/svgjs" width="85" height="80"><svg width="85" height="80" fill="none" xmlns="http://www.w3.org/2000/svg"><path d="M8.31 40.746l27.208.171M50.01 40.917h26.438" stroke="#000" stroke-width=".887"></path><path transform="rotate(-19.678 67.168 -31.462) skewX(-.024)" fill="#000" d="M0 0H59.646V7.513H0z"></path><rect x="8.753" y="25.006" width="67.726" height="39.981" rx="5.471" stroke="#000" stroke-width=".887"></rect><path fill="#D9D9D9" d="M14.517 20.639H19.418V27.832H14.517z"></path><path transform="rotate(-17.645 73.524 -28.937) skewX(-.022)" fill="#000" d="M0 0H19.278V3.596H0z"></path><path fill-rule="evenodd" clip-rule="evenodd" d="M15.007 20.313A6.698 6.698 0 008.31 27.01v10.417-4.038h13.396v-6.38c0-3.699-2.999-6.698-6.698-6.698zm.054 23.777h-.107.107z" fill="#000"></path><path fill="#000" d="M15.824 24.563H76.922V33.39H15.824z"></path><path transform="rotate(-19.527 39.72 -191.624) skewX(-.024)" fill="#000" d="M0 0H4.664V7.513H0z"></path><path transform="rotate(-19.527 43.627 -168.861) skewX(-.024)" fill="#000" d="M0 0H4.664V7.513H0z"></path><path transform="rotate(-19.527 47.556 -146.654) skewX(-.024)" fill="#000" d="M0 0H4.664V7.539H0z"></path><path transform="rotate(-19.527 51.598 -123.544) skewX(-.024)" fill="#000" d="M0 0H4.664V7.51H0z"></path><path d="M54.03 49.41c0 6.309-5.111 11.422-11.414 11.422S31.202 55.72 31.202 49.41s5.11-11.422 11.414-11.422c6.303 0 11.414 5.113 11.414 11.422z" stroke="#000" stroke-width="2.004"></path><path stroke="#000" stroke-width=".53" d="M62.811 34.635H71.757V37.702H62.811z"></path><path d="M50.109 49.246a7.332 7.332 0 01-7.33 7.336 7.332 7.332 0 01-7.33-7.336 7.332 7.332 0 017.33-7.335 7.332 7.332 0 017.33 7.335z" stroke="#000" stroke-width="2.004"></path><path d="M3.698 79.508c-.803 0-1.502-.166-2.098-.497-.588-.33-.977-.852-1.168-1.564a5.823 5.823 0 01-.161-1.143 39.719 39.719 0 01-.025-1.44c0-.497.02-.985.062-1.466.05-.48.141-.914.273-1.303.133-.39.332-.7.596-.932.274-.231.634-.347 1.08-.347.349 0 .638.082.87.248.24.166.422.385.546.658.125.273.187.576.187.907 0 .62-.058 1.287-.174 1.999a98.488 98.488 0 01-.348 2.011c.265-.082.567-.144.907-.186.347-.05.695-.066 1.043-.05.356.009.683.067.98.174.299.1.539.257.72.472.183.207.274.48.274.82 0 .406-.103.724-.31.956-.207.224-.485.385-.832.484a5.943 5.943 0 01-1.155.174 32.43 32.43 0 01-1.267.025zM10.195 79.47c-.29 0-.584-.003-.882-.012a4.046 4.046 0 01-.82-.124A1.321 1.321 0 017.886 79c-.149-.157-.223-.377-.223-.658 0-.364.124-.621.372-.77.249-.157.55-.26.907-.31-.025-.29-.041-.605-.05-.944a47.103 47.103 0 010-2.149c.009-.33.02-.633.037-.906a3.023 3.023 0 01-1.092-.323c-.298-.165-.447-.46-.447-.882 0-.314.082-.554.248-.72a1.31 1.31 0 01.658-.36c.282-.074.584-.12.907-.136a19.712 19.712 0 011.962 0c.33.016.633.062.906.136.273.066.493.186.658.36.174.166.261.406.261.72 0 .282-.07.505-.211.671-.14.166-.331.29-.571.373-.24.074-.501.128-.783.16.025.274.042.572.05.895.008.323.012.67.012 1.043 0 .397-.008.77-.024 1.118-.009.34-.025.654-.05.943.372.042.687.141.944.298.265.15.397.41.397.783 0 .281-.079.5-.236.658a1.243 1.243 0 01-.608.335 4.045 4.045 0 01-.82.124c-.298.009-.596.013-.894.013z" fill="#000"></path><path d="M16.97 79.52a3.926 3.926 0 01-1.613-.31 4.126 4.126 0 01-1.341-.919 4.426 4.426 0 01-.92-1.39 4.726 4.726 0 01-.36-1.727 4.193 4.193 0 01.311-1.676 4.29 4.29 0 012.26-2.31 3.995 3.995 0 011.664-.347 3.926 3.926 0 011.614.31c.505.215.952.522 1.341.919.39.389.696.848.92 1.378.231.53.351 1.105.36 1.726a3.927 3.927 0 01-.311 1.677 4.29 4.29 0 01-.907 1.378c-.389.39-.844.7-1.366.931a4.407 4.407 0 01-1.651.36zm.038-2.421c.364 0 .683-.133.956-.397.282-.265.418-.625.41-1.08 0-.464-.136-.829-.41-1.094a1.33 1.33 0 00-.956-.397 1.33 1.33 0 00-.956.397c-.273.265-.41.63-.41 1.093 0 .456.137.816.41 1.08.273.266.592.398.956.398zM23.278 79.508c-.257 0-.485-.103-.683-.31a2.588 2.588 0 01-.485-.82 7.8 7.8 0 01-.31-1.118 12.247 12.247 0 01-.161-1.217c-.034-.413-.05-.786-.05-1.117 0-.422.033-.87.1-1.341.066-.472.181-.915.347-1.329.165-.422.393-.766.683-1.03.29-.266.662-.398 1.117-.398.315 0 .588.104.82.31.24.2.455.48.646.845.19.356.372.766.546 1.23.174.463.36.955.559 1.477a11.195 11.195 0 01.062-1.937c.083-.588.248-1.056.497-1.403.248-.348.6-.522 1.055-.522.39 0 .7.132.931.397.24.265.423.609.547 1.031.124.414.207.857.248 1.329.05.472.075.919.075 1.34 0 .34-.025.713-.075 1.118-.05.406-.132.812-.248 1.217a4.826 4.826 0 01-.472 1.118c-.199.34-.443.613-.733.82-.281.207-.62.31-1.018.31-.356 0-.662-.112-.919-.335a3.44 3.44 0 01-.67-.907c-.19-.38-.369-.799-.534-1.254a46.13 46.13 0 00-.522-1.366c.009.571.009 1.097 0 1.577a5.613 5.613 0 01-.136 1.217c-.075.34-.207.604-.398.795-.19.182-.463.273-.82.273zM32.75 79.47c-.29 0-.583-.003-.881-.012a4.045 4.045 0 01-.82-.124 1.321 1.321 0 01-.608-.335c-.15-.157-.224-.377-.224-.658 0-.364.125-.621.373-.77.248-.157.55-.26.906-.31-.024-.29-.041-.605-.05-.944a47.538 47.538 0 010-2.149c.009-.33.021-.633.038-.906a3.023 3.023 0 01-1.093-.323c-.298-.165-.447-.46-.447-.882 0-.314.083-.554.248-.72a1.31 1.31 0 01.659-.36c.281-.074.583-.12.906-.136a19.71 19.71 0 011.962 0c.331.016.633.062.907.136.273.066.492.186.658.36.174.166.26.406.26.72 0 .282-.07.505-.21.671-.141.166-.332.29-.572.373-.24.074-.5.128-.782.16.025.274.041.572.05.895.008.323.012.67.012 1.043 0 .397-.008.77-.025 1.118-.008.34-.025.654-.05.943.373.042.688.141.944.298.265.15.398.41.398.783 0 .281-.08.5-.236.658a1.243 1.243 0 01-.609.335 4.045 4.045 0 01-.82.124c-.297.009-.596.013-.893.013zM40.473 79.508c-.29 0-.53-.075-.72-.224a1.186 1.186 0 01-.372-.583 3.568 3.568 0 01-.124-.77c-.017-.29-.025-.58-.025-.87a13.46 13.46 0 000-.819 2.635 2.635 0 00-.075-.596c-.041-.149-.12-.223-.236-.223-.165 0-.281.07-.347.21-.067.133-.1.315-.1.547 0 .224.013.468.038.733l.099.794c.033.257.05.485.05.683 0 .414-.096.7-.286.857-.182.157-.435.236-.758.236-.322 0-.608-.132-.856-.397a3.502 3.502 0 01-.609-1.043 7.767 7.767 0 01-.36-1.391 8.62 8.62 0 01-.124-1.416c0-.546.058-1.076.174-1.59.124-.512.306-.972.546-1.377.248-.406.555-.729.919-.969s.795-.36 1.291-.36c.39 0 .712.087.969.26.257.166.46.377.608.634.158.257.265.517.323.782.058-.265.162-.525.31-.782.15-.257.353-.468.61-.633.256-.174.575-.261.955-.261.63 0 1.163.194 1.602.584.447.389.787.927 1.018 1.614.232.679.348 1.47.348 2.371 0 .423-.045.87-.136 1.342a6.469 6.469 0 01-.398 1.303 3.25 3.25 0 01-.608.981c-.24.249-.514.373-.82.373-.331 0-.592-.083-.782-.248-.19-.166-.286-.456-.286-.87 0-.198.017-.426.05-.683l.1-.794c.032-.265.049-.51.049-.733 0-.232-.033-.414-.1-.546-.057-.141-.17-.211-.335-.211-.116 0-.198.074-.248.223-.041.15-.07.348-.087.596-.008.24-.012.51-.012.807 0 .29-.009.58-.025.87-.009.29-.046.55-.112.782a1.081 1.081 0 01-.373.584c-.19.148-.438.223-.745.223zM47.658 79.533c-.571 0-1.023-.278-1.354-.832-.323-.555-.513-1.283-.57-2.186-.067-1.117.053-2.102.36-2.955.314-.861.786-1.532 1.415-2.012s1.378-.72 2.248-.72c.877 0 1.626.24 2.247.72.63.48 1.097 1.147 1.403 2 .315.852.435 1.841.36 2.967-.058.927-.252 1.66-.583 2.198-.323.538-.77.807-1.341.807-.323 0-.572-.057-.745-.173a1.048 1.048 0 01-.373-.46 1.73 1.73 0 01-.1-.571c0-.199.013-.368.038-.51-.265.01-.575.017-.931.026-.356 0-.654-.009-.894-.025.024.14.037.31.037.509 0 .19-.037.38-.112.571a.966.966 0 01-.36.46c-.174.124-.422.186-.745.186zm1.093-3.937a25.88 25.88 0 011.962 0c.041-.29.037-.567-.013-.832a1.246 1.246 0 00-.31-.645c-.157-.166-.381-.249-.67-.249-.29 0-.514.083-.671.249a1.3 1.3 0 00-.298.645 2.804 2.804 0 000 .832zM57.876 79.483c-.413 0-.728-.136-.943-.41-.216-.273-.365-.678-.447-1.216a15.356 15.356 0 01-.112-2.025c0-.29.004-.563.012-.82l.025-.72c-.993-.05-1.722-.19-2.185-.422-.464-.231-.696-.633-.696-1.204 0-.712.36-1.192 1.08-1.44.73-.249 1.822-.373 3.279-.373 1.465 0 2.566.124 3.303.373.745.248 1.117.728 1.117 1.44 0 .563-.235.964-.707 1.204-.464.232-1.188.373-2.173.423.016.223.029.463.037.72.008.256.012.53.012.82 0 1.266-.111 2.193-.335 2.78-.224.58-.646.87-1.267.87zM65.359 79.47c-.29 0-.584-.003-.882-.012a4.045 4.045 0 01-.82-.124A1.321 1.321 0 0163.05 79c-.149-.157-.223-.377-.223-.658 0-.364.124-.621.372-.77.248-.157.55-.26.907-.31-.025-.29-.042-.605-.05-.944a47.538 47.538 0 010-2.149c.008-.33.02-.633.037-.906A3.023 3.023 0 0163 72.939c-.298-.165-.447-.46-.447-.882 0-.314.083-.554.249-.72a1.31 1.31 0 01.658-.36c.281-.074.584-.12.906-.136a19.71 19.71 0 011.962 0c.332.016.634.062.907.136.273.066.492.186.658.36.174.166.26.406.26.72 0 .282-.07.505-.21.671-.141.166-.331.29-.572.373-.24.074-.5.128-.782.16.025.274.041.572.05.895.008.323.012.67.012 1.043 0 .397-.008.77-.025 1.118-.008.34-.024.654-.05.943.373.042.688.141.944.298.265.15.398.41.398.783 0 .281-.079.5-.236.658a1.242 1.242 0 01-.609.335 4.045 4.045 0 01-.82.124c-.297.009-.595.013-.893.013z" fill="#000"></path><path d="M72.135 79.52a3.926 3.926 0 01-1.615-.31 4.127 4.127 0 01-1.34-.919 4.43 4.43 0 01-.92-1.39 4.726 4.726 0 01-.36-1.727 4.195 4.195 0 01.31-1.676 4.289 4.289 0 012.26-2.31 3.995 3.995 0 011.665-.347 3.926 3.926 0 011.614.31c.505.215.952.522 1.341.919.39.389.695.848.919 1.378.232.53.352 1.105.36 1.726a3.927 3.927 0 01-.31 1.677 4.289 4.289 0 01-.907 1.378c-.389.39-.844.7-1.366.931a4.407 4.407 0 01-1.651.36zm.037-2.421c.364 0 .683-.133.956-.397.281-.265.418-.625.41-1.08 0-.464-.137-.829-.41-1.094a1.33 1.33 0 00-.956-.397 1.33 1.33 0 00-.956.397c-.273.265-.41.63-.41 1.093 0 .456.136.816.41 1.08.273.266.592.398.956.398zM78.441 79.508c-.256 0-.484-.103-.683-.31a2.586 2.586 0 01-.484-.82 7.787 7.787 0 01-.31-1.118 12.247 12.247 0 01-.162-1.217c-.033-.413-.05-.786-.05-1.117 0-.422.034-.87.1-1.341.066-.472.182-.915.348-1.329.165-.422.393-.766.683-1.03.29-.266.662-.398 1.117-.398.315 0 .588.104.82.31.24.2.455.48.646.845.19.356.372.766.546 1.23.174.463.36.955.559 1.477a11.195 11.195 0 01.062-1.937c.083-.588.248-1.056.496-1.403.249-.348.6-.522 1.056-.522.389 0 .7.132.931.397.24.265.422.609.547 1.031.124.414.207.857.248 1.329.05.472.075.919.075 1.34 0 .34-.025.713-.075 1.118-.05.406-.133.812-.248 1.217a4.83 4.83 0 01-.472 1.118c-.199.34-.443.613-.733.82-.281.207-.62.31-1.018.31-.356 0-.662-.112-.919-.335a3.44 3.44 0 01-.67-.907c-.191-.38-.369-.799-.534-1.254-.166-.455-.34-.91-.522-1.366.008.571.008 1.097 0 1.577a5.607 5.607 0 01-.137 1.217c-.074.34-.207.604-.397.795-.19.182-.464.273-.82.273z" fill="#000"></path></svg><style>@media (prefers-color-scheme: light) { :root { filter: none; } }
@media (prefers-color-scheme: dark) { :root { filter: none; } }
</style></svg>