<svg width="31" height="31" fill="none" xmlns="http://www.w3.org/2000/svg"><path fill-rule="evenodd" clip-rule="evenodd" d="M4.437.5h5.15a3.75 3.75 0 013.75 3.767V9.4a3.75 3.75 0 01-3.75 3.75h-5.15A3.75 3.75 0 01.687 9.4V4.267A3.75 3.75 0 014.437.5zm5.15 10.133a1.267 1.267 0 001.25-1.25V4.267c0-.69-.56-1.25-1.25-1.25h-5.15c-.69 0-1.25.56-1.25 1.25v5.116a1.267 1.267 0 001.25 1.25h5.15zM21.787.5h5.15a3.75 3.75 0 013.75 3.767V9.4a3.75 3.75 0 01-3.75 3.75h-5.15a3.75 3.75 0 01-3.75-3.75V4.25A3.75 3.75 0 0121.787.5zm5.15 10.133a1.267 1.267 0 001.25-1.25V4.267c0-.69-.56-1.25-1.25-1.25h-5.15c-.69 0-1.25.56-1.25 1.25v5.116a1.267 1.267 0 001.25 1.25h5.15zM4.437 17.85h5.15a3.75 3.75 0 013.75 3.75v5.15a3.75 3.75 0 01-3.75 3.75h-5.15a3.75 3.75 0 01-3.75-3.767V21.6a3.75 3.75 0 013.75-3.75zm5.15 10.133c.69 0 1.25-.56 1.25-1.25V21.6a1.267 1.267 0 00-1.25-1.25h-5.15a1.267 1.267 0 00-1.25 1.25v5.133c0 .69.56 1.25 1.25 1.25h5.15zM21.787 17.85h5.15a3.75 3.75 0 013.75 3.75v5.133a3.75 3.75 0 01-3.75 3.767h-5.15a3.75 3.75 0 01-3.75-3.767V21.6a3.75 3.75 0 013.75-3.75zm5.15 10.133c.69 0 1.25-.56 1.25-1.25V21.6a1.267 1.267 0 00-1.25-1.25h-5.15a1.267 1.267 0 00-1.25 1.25v5.133c0 .69.56 1.25 1.25 1.25h5.15z" fill="#000"/></svg>