<svg width="28" height="28" fill="none" xmlns="http://www.w3.org/2000/svg"><g clip-path="url(#a)"><path d="M14.082 7.422a7.035 7.035 0 00-7.046 7.047c0 3.9 3.146 7.047 7.046 7.047 3.9 0 7.046-3.146 7.046-7.047 0-3.9-3.146-7.047-7.046-7.047zm0 11.629a4.59 4.59 0 01-4.58-4.582 4.585 4.585 0 014.58-4.581 4.585 4.585 0 014.58 4.581 4.59 4.59 0 01-4.58 4.582zm8.977-11.917a1.64 1.64 0 01-1.643 1.643 1.644 1.644 0 111.643-1.644zm4.666 1.668c-.104-2.202-.607-4.152-2.22-5.76C23.9 1.437 21.95.934 19.749.823c-2.269-.128-9.07-.128-11.338 0-2.195.105-4.145.608-5.758 2.215C1.04 4.644.542 6.594.432 8.796c-.128 2.27-.128 9.071 0 11.34.105 2.202.608 4.152 2.22 5.76 1.613 1.606 3.557 2.11 5.758 2.22 2.269.128 9.07.128 11.338 0 2.201-.105 4.151-.608 5.758-2.22 1.606-1.608 2.109-3.558 2.22-5.76.128-2.269.128-9.065 0-11.334zm-2.93 13.77a4.638 4.638 0 01-2.613 2.612c-1.809.717-6.101.552-8.1.552-1.999 0-6.297.16-8.1-.552A4.638 4.638 0 013.37 22.57c-.718-1.81-.552-6.102-.552-8.102s-.16-6.299.552-8.102a4.638 4.638 0 012.612-2.613c1.809-.717 6.101-.552 8.1-.552 1.999 0 6.297-.16 8.1.552a4.638 4.638 0 012.612 2.613c.718 1.81.552 6.103.552 8.102 0 2 .166 6.299-.552 8.102z" fill="#010101"/></g><defs><clipPath id="a"><path fill="#fff" transform="translate(.016 .406)" d="M0 0H27.486V27.486H0z"/></clipPath></defs></svg>