<svg width="34" height="34" fill="none" xmlns="http://www.w3.org/2000/svg"><g clip-path="url(#a)"><path d="M30.173 8.499c.021.355.021.71.021 1.065 0 10.832-6.802 23.313-19.233 23.313-3.83 0-7.388-1.344-10.38-3.678.543.076 1.066.102 1.632.102 3.16 0 6.069-1.294 8.392-3.501-2.972-.076-5.462-2.436-6.32-5.683.418.076.837.127 1.276.127a5.98 5.98 0 001.779-.279c-3.097-.76-5.42-4.059-5.42-8.041v-.102c.9.609 1.946.99 3.055 1.04-1.82-1.471-3.014-3.983-3.014-6.824 0-1.522.335-2.917.921-4.135 3.328 4.972 8.33 8.22 13.939 8.575a11.142 11.142 0 01-.168-1.878c0-4.515 3.014-8.194 6.76-8.194 1.947 0 3.704.99 4.94 2.588a11.999 11.999 0 004.29-1.979c-.503 1.903-1.57 3.501-2.972 4.516 1.36-.178 2.679-.634 3.892-1.269-.92 1.624-2.071 3.07-3.39 4.237z" fill="#010101"/></g><defs><clipPath id="a"><path fill="#fff" transform="translate(.58 .406)" d="M0 0H32.983V32.983H0z"/></clipPath></defs></svg>